<?xml version="1.0" standalone="no"?>
<!DOCTYPE svg PUBLIC "-//W3C//DTD SVG 20010904//EN"
 "http://www.w3.org/TR/2001/REC-SVG-20010904/DTD/svg10.dtd">
<svg version="1.0" xmlns="http://www.w3.org/2000/svg"
 width="500.000000pt" height="282.000000pt" viewBox="0 0 500.000000 282.000000"
 preserveAspectRatio="xMidYMid meet">
<metadata>
Created by potrace 1.16, written by Peter Selinger 2001-2019
</metadata>
<g transform="translate(-400.000000,550.000000) scale(0.20000,-0.20000)"
fill="#FFF" stroke="none">
<path d="M2690 2960 c0 -6 12 -16 28 -22 26 -11 25 -12 -25 -19 -77 -10 -85
-15 -81 -46 3 -26 7 -28 58 -34 30 -4 100 -4 156 -1 112 5 103 9 165 -72 16
-21 29 -45 29 -53 0 -8 24 -39 54 -68 l54 -53 52 10 c29 5 54 7 56 5 3 -2 -22
-26 -56 -53 -40 -32 -67 -64 -81 -94 -11 -25 -24 -52 -28 -60 -4 -8 -37 -31
-74 -50 -37 -20 -72 -41 -78 -47 -13 -13 -23 -123 -11 -123 5 0 7 -11 4 -25
-6 -36 4 -31 55 23 l45 47 -32 -58 c-24 -44 -30 -61 -21 -70 9 -9 16 -8 31 1
16 9 21 9 28 -4 8 -15 12 -15 38 -1 16 9 39 21 51 26 12 6 28 19 35 31 7 11
17 20 21 20 18 0 99 94 102 119 2 14 4 27 4 29 1 1 10 -7 21 -18 11 -11 26
-20 33 -20 18 0 47 -32 47 -52 0 -9 -17 -19 -49 -26 -124 -29 -246 -118 -305
-225 -39 -69 -76 -192 -76 -249 0 -56 37 -185 72 -250 51 -96 210 -230 252
-214 6 2 0 7 -14 10 -17 5 -39 30 -67 77 -48 77 -54 119 -27 172 24 46 110
123 170 152 75 35 191 65 256 65 64 0 62 1 212 -138 l80 -74 17 44 c20 47 24
82 10 74 -14 -9 -66 62 -94 129 -14 33 -39 102 -57 153 -18 51 -49 124 -70
162 -21 38 -35 72 -31 76 3 4 1 4 -6 0 -6 -3 -14 -2 -18 4 -3 5 -25 15 -48 21
-63 17 -171 84 -185 114 -25 55 21 170 81 202 18 9 53 17 80 17 40 0 52 -5 82
-34 30 -29 35 -31 35 -15 0 29 -40 125 -68 163 -13 18 -39 41 -58 49 -41 20
-42 36 -9 85 30 44 31 60 8 80 -44 38 -174 90 -194 77 -12 -8 -12 -10 1 -19
11 -7 -6 -10 -57 -10 -39 0 -75 -4 -78 -10 -4 -6 -19 -5 -41 5 -40 16 -242 75
-258 75 -6 0 -2 -7 8 -15 25 -19 15 -19 -94 0 -100 18 -140 19 -140 5z m826
-862 c21 -41 25 -61 21 -101 -8 -91 -72 -145 -237 -201 -63 -22 -132 -51 -153
-64 -45 -30 -79 -83 -87 -137 l-7 -40 -22 49 c-33 70 -38 153 -15 229 15 49
30 74 74 119 64 66 81 74 190 87 90 12 147 37 181 80 13 16 25 30 26 30 2 1
14 -22 29 -51z"/>
<path d="M3388 1535 c-21 -8 -69 -32 -109 -55 l-71 -42 79 -28 c113 -40 263
-126 263 -150 0 -5 -8 -11 -17 -13 -16 -4 -16 -5 -1 -6 9 0 20 4 23 9 3 6 17
10 31 10 25 0 25 -1 -12 -35 -20 -19 -40 -35 -44 -35 -4 0 -15 -9 -25 -20 -10
-11 -22 -20 -28 -20 -5 0 -22 -13 -37 -30 -15 -16 -35 -30 -43 -30 -8 0 -55
40 -103 90 -48 50 -93 90 -99 90 -6 0 -38 14 -71 30 -125 64 -214 75 -214 25
0 -19 18 -39 74 -82 40 -32 86 -66 102 -76 16 -9 54 -33 84 -52 31 -20 67 -35
85 -35 16 0 50 -12 75 -26 l45 -25 -55 56 c-55 57 -106 98 -209 168 -56 39
-60 47 -9 21 75 -39 293 -228 282 -246 -3 -4 6 -8 20 -8 14 0 28 5 31 10 11
18 70 38 115 38 24 1 46 5 49 9 3 5 20 15 38 22 18 7 38 19 44 27 6 8 40 28
75 45 35 18 64 36 64 40 0 5 7 9 16 9 17 0 74 58 74 77 0 20 -35 33 -94 33
-59 0 -74 13 -47 43 8 10 10 17 4 15 -6 -2 -60 29 -119 69 -60 39 -122 77
-137 82 -37 14 -83 13 -129 -4z"/>
</g>
</svg>
